<svg xmlns="http://www.w3.org/2000/svg" viewBox="0 0 1200 620">
  <rect x="0" y="0" width="1200" height="620" fill="#f8fafc"/>
  <defs>
    <marker id="arrow" markerWidth="12" markerHeight="12" refX="10" refY="6" orient="auto">
      <path d="M0,0 L12,6 L0,12 Z" fill="#475569"/>
    </marker>
  </defs>

  <rect x="40" y="60" width="250" height="120" rx="18" fill="#dbeafe" stroke="#3b82f6" stroke-width="3"/>
  <text x="165" y="110" text-anchor="middle" font-family="Arial" font-size="30" fill="#1e3a8a">Показ у SERP</text>
  <text x="165" y="145" text-anchor="middle" font-family="Arial" font-size="26" fill="#1e3a8a">Impressions</text>

  <rect x="330" y="60" width="250" height="120" rx="18" fill="#dcfce7" stroke="#22c55e" stroke-width="3"/>
  <text x="455" y="110" text-anchor="middle" font-family="Arial" font-size="30" fill="#14532d">Клік</text>
  <text x="455" y="145" text-anchor="middle" font-family="Arial" font-size="26" fill="#14532d">CTR</text>

  <rect x="620" y="60" width="250" height="120" rx="18" fill="#fef3c7" stroke="#f59e0b" stroke-width="3"/>
  <text x="745" y="108" text-anchor="middle" font-family="Arial" font-size="30" fill="#92400e">Поведінка</text>
  <text x="745" y="142" text-anchor="middle" font-family="Arial" font-size="26" fill="#92400e">Scroll / Time</text>

  <rect x="910" y="60" width="250" height="120" rx="18" fill="#fee2e2" stroke="#ef4444" stroke-width="3"/>
  <text x="1035" y="110" text-anchor="middle" font-family="Arial" font-size="30" fill="#7f1d1d">Сигнал якості</text>
  <text x="1035" y="145" text-anchor="middle" font-family="Arial" font-size="26" fill="#7f1d1d">Ранжування</text>

  <line x1="290" y1="120" x2="320" y2="120" stroke="#475569" stroke-width="4" marker-end="url(#arrow)"/>
  <line x1="580" y1="120" x2="610" y2="120" stroke="#475569" stroke-width="4" marker-end="url(#arrow)"/>
  <line x1="870" y1="120" x2="900" y2="120" stroke="#475569" stroke-width="4" marker-end="url(#arrow)"/>

  <rect x="180" y="290" width="840" height="250" rx="24" fill="#ffffff" stroke="#cbd5e1" stroke-width="3"/>
  <text x="600" y="345" text-anchor="middle" font-family="Arial" font-size="34" fill="#0f172a">Що підсилює позитивний цикл</text>

  <circle cx="290" cy="430" r="58" fill="#e0f2fe" stroke="#0284c7" stroke-width="3"/>
  <text x="290" y="438" text-anchor="middle" font-family="Arial" font-size="25" fill="#0c4a6e">Релевантність</text>

  <circle cx="495" cy="430" r="58" fill="#ecfccb" stroke="#65a30d" stroke-width="3"/>
  <text x="495" y="438" text-anchor="middle" font-family="Arial" font-size="25" fill="#365314">Швидкість</text>

  <circle cx="700" cy="430" r="58" fill="#fef9c3" stroke="#ca8a04" stroke-width="3"/>
  <text x="700" y="438" text-anchor="middle" font-family="Arial" font-size="25" fill="#713f12">Зручність</text>

  <circle cx="905" cy="430" r="58" fill="#fce7f3" stroke="#db2777" stroke-width="3"/>
  <text x="905" y="438" text-anchor="middle" font-family="Arial" font-size="25" fill="#831843">Довіра</text>
</svg>
