<svg xmlns="http://www.w3.org/2000/svg" viewBox="0 0 1200 620">
  <rect x="0" y="0" width="1200" height="620" fill="#f8fafc"/>
  <defs>
    <marker id="arr" markerWidth="12" markerHeight="12" refX="10" refY="6" orient="auto">
      <path d="M0,0 L12,6 L0,12 Z" fill="#334155"/>
    </marker>
  </defs>

  <rect x="430" y="245" width="340" height="130" rx="20" fill="#fee2e2" stroke="#ef4444" stroke-width="4"/>
  <text x="600" y="295" text-anchor="middle" font-family="Arial" font-size="36" fill="#7f1d1d">Високий</text>
  <text x="600" y="335" text-anchor="middle" font-family="Arial" font-size="36" fill="#7f1d1d">Bounce Rate</text>

  <rect x="40" y="70" width="300" height="140" rx="18" fill="#dbeafe" stroke="#3b82f6" stroke-width="3"/>
  <text x="190" y="125" text-anchor="middle" font-family="Arial" font-size="30" fill="#1e3a8a">Нерелевантний</text>
  <text x="190" y="160" text-anchor="middle" font-family="Arial" font-size="30" fill="#1e3a8a">інтент</text>

  <rect x="860" y="70" width="300" height="140" rx="18" fill="#dcfce7" stroke="#22c55e" stroke-width="3"/>
  <text x="1010" y="125" text-anchor="middle" font-family="Arial" font-size="30" fill="#14532d">Повільний</text>
  <text x="1010" y="160" text-anchor="middle" font-family="Arial" font-size="30" fill="#14532d">перший екран</text>

  <rect x="40" y="410" width="300" height="140" rx="18" fill="#fef3c7" stroke="#f59e0b" stroke-width="3"/>
  <text x="190" y="465" text-anchor="middle" font-family="Arial" font-size="30" fill="#92400e">Заплутана</text>
  <text x="190" y="500" text-anchor="middle" font-family="Arial" font-size="30" fill="#92400e">навігація</text>

  <rect x="860" y="410" width="300" height="140" rx="18" fill="#ede9fe" stroke="#8b5cf6" stroke-width="3"/>
  <text x="1010" y="465" text-anchor="middle" font-family="Arial" font-size="30" fill="#4c1d95">Слабка</text>
  <text x="1010" y="500" text-anchor="middle" font-family="Arial" font-size="30" fill="#4c1d95">довіра</text>

  <line x1="340" y1="190" x2="430" y2="260" stroke="#334155" stroke-width="4" marker-end="url(#arr)"/>
  <line x1="860" y1="190" x2="770" y2="260" stroke="#334155" stroke-width="4" marker-end="url(#arr)"/>
  <line x1="340" y1="430" x2="430" y2="360" stroke="#334155" stroke-width="4" marker-end="url(#arr)"/>
  <line x1="860" y1="430" x2="770" y2="360" stroke="#334155" stroke-width="4" marker-end="url(#arr)"/>
</svg>
