<svg xmlns="http://www.w3.org/2000/svg" viewBox="0 0 1200 620">
  <rect x="0" y="0" width="1200" height="620" fill="#f8fafc"/>

  <rect x="40" y="40" width="1120" height="120" rx="16" fill="#e2e8f0"/>
  <rect x="60" y="60" width="250" height="80" rx="10" fill="#dbeafe"/>
  <text x="185" y="95" text-anchor="middle" font-family="Arial" font-size="24" fill="#1e3a8a">CTR</text>
  <text x="185" y="125" text-anchor="middle" font-family="Arial" font-size="30" fill="#1e3a8a">6.8%</text>

  <rect x="330" y="60" width="250" height="80" rx="10" fill="#fee2e2"/>
  <text x="455" y="95" text-anchor="middle" font-family="Arial" font-size="24" fill="#7f1d1d">Bounce Rate</text>
  <text x="455" y="125" text-anchor="middle" font-family="Arial" font-size="30" fill="#7f1d1d">48%</text>

  <rect x="600" y="60" width="250" height="80" rx="10" fill="#dcfce7"/>
  <text x="725" y="95" text-anchor="middle" font-family="Arial" font-size="24" fill="#14532d">Dwell Time</text>
  <text x="725" y="125" text-anchor="middle" font-family="Arial" font-size="30" fill="#14532d">01:42</text>

  <rect x="870" y="60" width="270" height="80" rx="10" fill="#fef3c7"/>
  <text x="1005" y="95" text-anchor="middle" font-family="Arial" font-size="24" fill="#92400e">Micro Conv.</text>
  <text x="1005" y="125" text-anchor="middle" font-family="Arial" font-size="30" fill="#92400e">22.4%</text>

  <rect x="40" y="190" width="740" height="390" rx="16" fill="#ffffff" stroke="#cbd5e1" stroke-width="3"/>
  <line x1="90" y1="520" x2="740" y2="520" stroke="#475569" stroke-width="3"/>
  <line x1="90" y1="240" x2="90" y2="520" stroke="#475569" stroke-width="3"/>
  <polyline points="90,480 170,460 250,440 330,405 410,390 490,350 570,330 650,305 730,275" fill="none" stroke="#2563eb" stroke-width="6"/>
  <polyline points="90,300 170,315 250,325 330,345 410,360 490,375 570,390 650,410 730,430" fill="none" stroke="#ef4444" stroke-width="6"/>
  <text x="120" y="230" font-family="Arial" font-size="22" fill="#0f172a">Тренд 8 тижнів</text>
  <text x="610" y="555" font-family="Arial" font-size="20" fill="#1e3a8a">CTR</text>
  <text x="675" y="555" font-family="Arial" font-size="20" fill="#7f1d1d">Bounce</text>

  <rect x="810" y="190" width="350" height="390" rx="16" fill="#ffffff" stroke="#cbd5e1" stroke-width="3"/>
  <text x="985" y="235" text-anchor="middle" font-family="Arial" font-size="24" fill="#0f172a">Якість сторінок входу</text>

  <rect x="845" y="270" width="280" height="42" rx="8" fill="#dcfce7"/>
  <rect x="845" y="327" width="220" height="42" rx="8" fill="#fef3c7"/>
  <rect x="845" y="384" width="165" height="42" rx="8" fill="#fee2e2"/>

  <text x="850" y="297" font-family="Arial" font-size="22" fill="#14532d">Good: 58 URL</text>
  <text x="850" y="354" font-family="Arial" font-size="22" fill="#92400e">Needs work: 31 URL</text>
  <text x="850" y="411" font-family="Arial" font-size="22" fill="#7f1d1d">Critical: 17 URL</text>

  <text x="845" y="475" font-family="Arial" font-size="21" fill="#0f172a">Пріоритет: high-traffic + low CTR</text>
  <text x="845" y="510" font-family="Arial" font-size="21" fill="#0f172a">Фокус: перший екран, CTA, довіра</text>
</svg>
