<svg xmlns="http://www.w3.org/2000/svg" viewBox="0 0 1200 500">
  <rect x="80" y="60" width="1040" height="360" fill="#ffffff" stroke="#94a3b8" stroke-width="2"/>
  <line x1="120" y1="380" x2="1080" y2="380" stroke="#475569" stroke-width="3"/>
  <line x1="120" y1="100" x2="120" y2="380" stroke="#475569" stroke-width="3"/>

  <text x="600" y="455" text-anchor="middle" font-size="24" font-family="Arial" fill="#334155">Час (місяці)</text>
  <text x="45" y="240" text-anchor="middle" transform="rotate(-90 45 240)" font-size="24" font-family="Arial" fill="#334155">К-сть нових лінків</text>

  <polyline points="140,360 220,345 300,330 380,300 460,285 540,260 620,245 700,225 780,210 860,190 940,170 1020,150"
            fill="none" stroke="#16a34a" stroke-width="5"/>

  <polyline points="140,365 240,360 340,350 420,345 500,220 580,90 660,180 760,95 860,250 960,130 1020,110"
            fill="none" stroke="#dc2626" stroke-width="5" stroke-dasharray="10 8"/>

  <text x="900" y="205" font-size="22" font-family="Arial" fill="#166534">Природний ріст</text>
  <text x="760" y="80" font-size="22" font-family="Arial" fill="#991b1b">Ризикові сплески</text>

  <circle cx="500" cy="220" r="8" fill="#dc2626"/>
  <circle cx="580" cy="90" r="8" fill="#dc2626"/>
  <text x="610" y="95" font-size="20" font-family="Arial" fill="#991b1b">аномальний burst</text>
</svg>
