<svg xmlns="http://www.w3.org/2000/svg" viewBox="0 0 1200 620">
  <rect x="0" y="0" width="1200" height="620" fill="#f8fafc"/>

  <defs>
    <marker id="arrow" markerWidth="12" markerHeight="12" refX="10" refY="6" orient="auto">
      <path d="M0,0 L12,6 L0,12 z" fill="#334155"/>
    </marker>
  </defs>

  <rect x="20" y="210" width="180" height="180" rx="20" fill="#dbeafe" stroke="#2563eb" stroke-width="4"/>
  <text x="110" y="290" text-anchor="middle" font-family="Arial" font-size="30" fill="#1e3a8a">Crawl</text>
  <text x="110" y="330" text-anchor="middle" font-family="Arial" font-size="30" fill="#1e3a8a">Googlebot</text>

  <rect x="240" y="210" width="180" height="180" rx="20" fill="#dcfce7" stroke="#16a34a" stroke-width="4"/>
  <text x="330" y="290" text-anchor="middle" font-family="Arial" font-size="30" fill="#14532d">Index</text>
  <text x="330" y="330" text-anchor="middle" font-family="Arial" font-size="30" fill="#14532d">state</text>

  <rect x="460" y="210" width="180" height="180" rx="20" fill="#fef3c7" stroke="#d97706" stroke-width="4"/>
  <text x="550" y="290" text-anchor="middle" font-family="Arial" font-size="30" fill="#92400e">SERP</text>
  <text x="550" y="330" text-anchor="middle" font-family="Arial" font-size="30" fill="#92400e">impressions</text>

  <rect x="680" y="210" width="180" height="180" rx="20" fill="#fee2e2" stroke="#dc2626" stroke-width="4"/>
  <text x="770" y="290" text-anchor="middle" font-family="Arial" font-size="30" fill="#7f1d1d">Clicks</text>
  <text x="770" y="330" text-anchor="middle" font-family="Arial" font-size="30" fill="#7f1d1d">CTR</text>

  <rect x="900" y="210" width="280" height="180" rx="20" fill="#e2e8f0" stroke="#475569" stroke-width="4"/>
  <text x="1040" y="280" text-anchor="middle" font-family="Arial" font-size="30" fill="#0f172a">Звіти</text>
  <text x="1040" y="325" text-anchor="middle" font-family="Arial" font-size="28" fill="#0f172a">Performance / Indexing</text>

  <line x1="200" y1="300" x2="240" y2="300" stroke="#334155" stroke-width="6" marker-end="url(#arrow)"/>
  <line x1="420" y1="300" x2="460" y2="300" stroke="#334155" stroke-width="6" marker-end="url(#arrow)"/>
  <line x1="640" y1="300" x2="680" y2="300" stroke="#334155" stroke-width="6" marker-end="url(#arrow)"/>
  <line x1="860" y1="300" x2="900" y2="300" stroke="#334155" stroke-width="6" marker-end="url(#arrow)"/>

  <rect x="0" y="500" width="1200" height="120" fill="#ffffff"/>
  <text x="90" y="575" font-family="Arial" font-size="30" fill="#1e3a8a">Coverage</text>
  <text x="340" y="575" font-family="Arial" font-size="30" fill="#14532d">Sitemaps</text>
  <text x="600" y="575" font-family="Arial" font-size="30" fill="#92400e">Page Experience</text>
  <text x="900" y="575" font-family="Arial" font-size="30" fill="#7f1d1d">Links</text>
</svg>
