<svg xmlns="http://www.w3.org/2000/svg" viewBox="0 0 1200 620">
  <rect x="0" y="0" width="1200" height="620" fill="#f8fafc"/>

  <rect x="0" y="80" width="240" height="460" fill="#dbeafe"/>
  <text x="120" y="170" text-anchor="middle" font-family="Arial" font-size="34" fill="#1e3a8a">Користувачі</text>
  <text x="120" y="230" text-anchor="middle" font-family="Arial" font-size="30" fill="#1e3a8a">new / returning</text>

  <rect x="250" y="80" width="250" height="460" fill="#dcfce7"/>
  <text x="375" y="170" text-anchor="middle" font-family="Arial" font-size="34" fill="#14532d">Сесії</text>
  <text x="375" y="230" text-anchor="middle" font-family="Arial" font-size="30" fill="#14532d">organic landing</text>

  <rect x="510" y="80" width="250" height="460" fill="#fef3c7"/>
  <text x="635" y="170" text-anchor="middle" font-family="Arial" font-size="34" fill="#92400e">Події</text>
  <text x="635" y="230" text-anchor="middle" font-family="Arial" font-size="30" fill="#92400e">scroll / click / lead</text>

  <rect x="770" y="80" width="210" height="460" fill="#fee2e2"/>
  <text x="875" y="170" text-anchor="middle" font-family="Arial" font-size="34" fill="#7f1d1d">Конверсії</text>
  <text x="875" y="230" text-anchor="middle" font-family="Arial" font-size="30" fill="#7f1d1d">macro + micro</text>

  <rect x="990" y="80" width="210" height="460" fill="#e2e8f0"/>
  <text x="1095" y="170" text-anchor="middle" font-family="Arial" font-size="34" fill="#0f172a">Цінність</text>
  <text x="1095" y="230" text-anchor="middle" font-family="Arial" font-size="30" fill="#0f172a">revenue / ROMI</text>

  <line x1="230" y1="570" x2="250" y2="570" stroke="#334155" stroke-width="8"/>
  <line x1="490" y1="570" x2="510" y2="570" stroke="#334155" stroke-width="8"/>
  <line x1="750" y1="570" x2="770" y2="570" stroke="#334155" stroke-width="8"/>
  <line x1="970" y1="570" x2="990" y2="570" stroke="#334155" stroke-width="8"/>
</svg>
