<svg xmlns="http://www.w3.org/2000/svg" viewBox="0 0 1200 620">
  <rect x="0" y="0" width="1200" height="620" fill="#f8fafc"/>

  <rect x="360" y="20" width="480" height="90" rx="14" fill="#fee2e2" stroke="#dc2626" stroke-width="4"/>
  <text x="600" y="76" text-anchor="middle" font-family="Arial" font-size="34" fill="#7f1d1d">Бізнес-ціль: ріст доходу</text>

  <line x1="600" y1="110" x2="600" y2="170" stroke="#334155" stroke-width="5"/>
  <line x1="220" y1="170" x2="980" y2="170" stroke="#334155" stroke-width="5"/>

  <line x1="300" y1="170" x2="300" y2="220" stroke="#334155" stroke-width="5"/>
  <line x1="600" y1="170" x2="600" y2="220" stroke="#334155" stroke-width="5"/>
  <line x1="900" y1="170" x2="900" y2="220" stroke="#334155" stroke-width="5"/>

  <rect x="140" y="220" width="320" height="100" rx="14" fill="#dbeafe" stroke="#2563eb" stroke-width="4"/>
  <text x="300" y="280" text-anchor="middle" font-family="Arial" font-size="30" fill="#1e3a8a">Видимість</text>

  <rect x="440" y="220" width="320" height="100" rx="14" fill="#dcfce7" stroke="#16a34a" stroke-width="4"/>
  <text x="600" y="280" text-anchor="middle" font-family="Arial" font-size="30" fill="#14532d">Якість трафіку</text>

  <rect x="740" y="220" width="320" height="100" rx="14" fill="#fef3c7" stroke="#d97706" stroke-width="4"/>
  <text x="900" y="280" text-anchor="middle" font-family="Arial" font-size="30" fill="#92400e">Конверсії</text>

  <line x1="300" y1="320" x2="300" y2="360" stroke="#334155" stroke-width="4"/>
  <line x1="600" y1="320" x2="600" y2="360" stroke="#334155" stroke-width="4"/>
  <line x1="900" y1="320" x2="900" y2="360" stroke="#334155" stroke-width="4"/>

  <rect x="40" y="360" width="280" height="220" fill="#eff6ff"/>
  <rect x="340" y="360" width="520" height="220" fill="#f0fdf4"/>
  <rect x="880" y="360" width="280" height="220" fill="#fffbeb"/>

  <text x="180" y="420" text-anchor="middle" font-family="Arial" font-size="26" fill="#1e3a8a">Impressions</text>
  <text x="180" y="465" text-anchor="middle" font-family="Arial" font-size="26" fill="#1e3a8a">Top-10 share</text>
  <text x="180" y="510" text-anchor="middle" font-family="Arial" font-size="26" fill="#1e3a8a">CTR</text>

  <text x="600" y="420" text-anchor="middle" font-family="Arial" font-size="26" fill="#14532d">Engagement rate</text>
  <text x="600" y="465" text-anchor="middle" font-family="Arial" font-size="26" fill="#14532d">Dwell / Scroll</text>
  <text x="600" y="510" text-anchor="middle" font-family="Arial" font-size="26" fill="#14532d">Page depth</text>

  <text x="1020" y="420" text-anchor="middle" font-family="Arial" font-size="26" fill="#92400e">Leads</text>
  <text x="1020" y="465" text-anchor="middle" font-family="Arial" font-size="26" fill="#92400e">Organic CR</text>
  <text x="1020" y="510" text-anchor="middle" font-family="Arial" font-size="26" fill="#92400e">Revenue</text>
</svg>
