<svg xmlns="http://www.w3.org/2000/svg" viewBox="0 0 1200 500">
  <rect x="90" y="30" width="1020" height="420" rx="14" fill="#ffffff" stroke="#bcc9dc" stroke-width="3"/>

  <text x="160" y="90" font-size="30" font-family="Arial" fill="#273c66">LCP</text>
  <rect x="250" y="60" width="700" height="34" rx="8" fill="#e5e7eb"/>
  <rect x="250" y="60" width="440" height="34" rx="8" fill="#86d19f"/>
  <rect x="690" y="60" width="160" height="34" fill="#f3d17b"/>
  <rect x="850" y="60" width="100" height="34" rx="0" fill="#e98a8a"/>
  <text x="980" y="88" font-size="24" font-family="Arial" fill="#273c66">2.3s</text>

  <text x="160" y="180" font-size="30" font-family="Arial" fill="#273c66">INP</text>
  <rect x="250" y="150" width="700" height="34" rx="8" fill="#e5e7eb"/>
  <rect x="250" y="150" width="390" height="34" rx="8" fill="#86d19f"/>
  <rect x="640" y="150" width="170" height="34" fill="#f3d17b"/>
  <rect x="810" y="150" width="140" height="34" fill="#e98a8a"/>
  <text x="980" y="178" font-size="24" font-family="Arial" fill="#273c66">280ms</text>

  <text x="160" y="270" font-size="30" font-family="Arial" fill="#273c66">CLS</text>
  <rect x="250" y="240" width="700" height="34" rx="8" fill="#e5e7eb"/>
  <rect x="250" y="240" width="520" height="34" rx="8" fill="#86d19f"/>
  <rect x="770" y="240" width="110" height="34" fill="#f3d17b"/>
  <rect x="880" y="240" width="70" height="34" fill="#e98a8a"/>
  <text x="980" y="268" font-size="24" font-family="Arial" fill="#273c66">0.06</text>

  <text x="160" y="370" font-size="24" font-family="Arial" fill="#273c66">Зелена зона: добре</text>
  <text x="470" y="370" font-size="24" font-family="Arial" fill="#273c66">Жовта зона: покращити</text>
  <text x="840" y="370" font-size="24" font-family="Arial" fill="#273c66">Червона зона: критично</text>

  <circle cx="140" cy="364" r="10" fill="#86d19f"/>
  <circle cx="450" cy="364" r="10" fill="#f3d17b"/>
  <circle cx="820" cy="364" r="10" fill="#e98a8a"/>
</svg>
