<svg xmlns="http://www.w3.org/2000/svg" viewBox="0 0 1200 620">
  <rect x="0" y="0" width="1200" height="620" fill="#f8fafc"/>

  <line x1="90" y1="560" x2="1120" y2="560" stroke="#334155" stroke-width="4"/>
  <g font-family="Arial" font-size="22" fill="#1e293b" text-anchor="middle">
    <text x="90" y="595">0 c</text>
    <text x="390" y="595">20 c</text>
    <text x="690" y="595">60 c</text>
    <text x="990" y="595">120+ c</text>
  </g>

  <rect x="130" y="120" width="220" height="90" rx="14" fill="#fee2e2" stroke="#ef4444" stroke-width="3"/>
  <text x="240" y="175" text-anchor="middle" font-family="Arial" font-size="28" fill="#7f1d1d">Коротка сесія</text>

  <rect x="130" y="270" width="480" height="90" rx="14" fill="#fef3c7" stroke="#f59e0b" stroke-width="3"/>
  <text x="370" y="325" text-anchor="middle" font-family="Arial" font-size="28" fill="#92400e">Середня сесія</text>

  <rect x="130" y="420" width="860" height="90" rx="14" fill="#dcfce7" stroke="#22c55e" stroke-width="3"/>
  <text x="560" y="475" text-anchor="middle" font-family="Arial" font-size="28" fill="#14532d">Довга сесія</text>

  <circle cx="130" cy="165" r="14" fill="#1d4ed8"/>
  <circle cx="350" cy="165" r="14" fill="#b91c1c"/>
  <text x="130" y="105" text-anchor="middle" font-family="Arial" font-size="21" fill="#0f172a">Клік у SERP</text>
  <text x="350" y="105" text-anchor="middle" font-family="Arial" font-size="21" fill="#0f172a">Швидке повернення</text>

  <circle cx="130" cy="315" r="14" fill="#1d4ed8"/>
  <circle cx="610" cy="315" r="14" fill="#ea580c"/>
  <text x="610" y="255" text-anchor="middle" font-family="Arial" font-size="21" fill="#0f172a">Часткове задоволення</text>

  <circle cx="130" cy="465" r="14" fill="#1d4ed8"/>
  <circle cx="990" cy="465" r="14" fill="#15803d"/>
  <text x="990" y="405" text-anchor="middle" font-family="Arial" font-size="21" fill="#0f172a">Задачу вирішено</text>
</svg>
