<svg xmlns="http://www.w3.org/2000/svg" viewBox="0 0 1200 500">
  <rect x="80" y="120" width="190" height="150" rx="12" fill="#dbeafe" stroke="#6189c8" stroke-width="3"/>
  <text x="175" y="185" text-anchor="middle" font-size="25" font-family="Arial" fill="#1f3f6c">1. Audit</text>
  <text x="175" y="220" text-anchor="middle" font-size="20" font-family="Arial" fill="#1f3f6c">PSI + GSC</text>

  <rect x="300" y="120" width="190" height="150" rx="12" fill="#e0f2fe" stroke="#5aa0c8" stroke-width="3"/>
  <text x="395" y="185" text-anchor="middle" font-size="25" font-family="Arial" fill="#1a5e79">2. Diagnose</text>
  <text x="395" y="220" text-anchor="middle" font-size="20" font-family="Arial" fill="#1a5e79">root cause</text>

  <rect x="520" y="120" width="190" height="150" rx="12" fill="#fef3c7" stroke="#c39a3a" stroke-width="3"/>
  <text x="615" y="185" text-anchor="middle" font-size="25" font-family="Arial" fill="#664d17">3. Fix</text>
  <text x="615" y="220" text-anchor="middle" font-size="20" font-family="Arial" fill="#664d17">template/code</text>

  <rect x="740" y="120" width="190" height="150" rx="12" fill="#dcfce7" stroke="#5ea07f" stroke-width="3"/>
  <text x="835" y="185" text-anchor="middle" font-size="25" font-family="Arial" fill="#1e5a3d">4. Verify</text>
  <text x="835" y="220" text-anchor="middle" font-size="20" font-family="Arial" fill="#1e5a3d">retest</text>

  <rect x="960" y="120" width="170" height="150" rx="12" fill="#fee2e2" stroke="#cd7a7a" stroke-width="3"/>
  <text x="1045" y="185" text-anchor="middle" font-size="25" font-family="Arial" fill="#7b2f2f">5. Monitor</text>
  <text x="1045" y="220" text-anchor="middle" font-size="20" font-family="Arial" fill="#7b2f2f">weekly</text>

  <line x1="270" y1="195" x2="300" y2="195" stroke="#64748b" stroke-width="4"/>
  <line x1="490" y1="195" x2="520" y2="195" stroke="#64748b" stroke-width="4"/>
  <line x1="710" y1="195" x2="740" y2="195" stroke="#64748b" stroke-width="4"/>
  <line x1="930" y1="195" x2="960" y2="195" stroke="#64748b" stroke-width="4"/>

  <path d="M1045 290 C1045 420, 180 420, 175 290" stroke="#64748b" stroke-width="4" fill="none"/>
  <polygon points="175,280 185,295 165,295" fill="#64748b"/>
  <text x="610" y="460" text-anchor="middle" font-size="26" font-family="Arial" fill="#273c66">Безперервний цикл без регресій</text>
</svg>
