<svg xmlns="http://www.w3.org/2000/svg" viewBox="0 0 1200 620">
  <rect x="0" y="0" width="1200" height="620" fill="#f8fafc"/>

  <rect x="0" y="0" width="1200" height="130" fill="#e2e8f0"/>
  <rect x="20" y="20" width="270" height="90" rx="12" fill="#dbeafe"/>
  <rect x="310" y="20" width="270" height="90" rx="12" fill="#dcfce7"/>
  <rect x="600" y="20" width="270" height="90" rx="12" fill="#fef3c7"/>
  <rect x="890" y="20" width="290" height="90" rx="12" fill="#fee2e2"/>

  <text x="155" y="58" text-anchor="middle" font-family="Arial" font-size="24" fill="#1e3a8a">Organic Clicks</text>
  <text x="155" y="92" text-anchor="middle" font-family="Arial" font-size="34" fill="#1e3a8a">48 200</text>

  <text x="445" y="58" text-anchor="middle" font-family="Arial" font-size="24" fill="#14532d">Engaged Sessions</text>
  <text x="445" y="92" text-anchor="middle" font-family="Arial" font-size="34" fill="#14532d">31 460</text>

  <text x="735" y="58" text-anchor="middle" font-family="Arial" font-size="24" fill="#92400e">Organic CR</text>
  <text x="735" y="92" text-anchor="middle" font-family="Arial" font-size="34" fill="#92400e">3.9%</text>

  <text x="1035" y="58" text-anchor="middle" font-family="Arial" font-size="24" fill="#7f1d1d">Revenue Organic</text>
  <text x="1035" y="92" text-anchor="middle" font-family="Arial" font-size="34" fill="#7f1d1d">$126 400</text>

  <rect x="20" y="160" width="760" height="440" rx="18" fill="#ffffff" stroke="#cbd5e1" stroke-width="3"/>
  <line x1="80" y1="540" x2="740" y2="540" stroke="#475569" stroke-width="3"/>
  <line x1="80" y1="210" x2="80" y2="540" stroke="#475569" stroke-width="3"/>
  <polyline points="80,500 150,470 220,455 290,420 360,390 430,360 500,330 570,290 640,255 710,220" fill="none" stroke="#2563eb" stroke-width="6"/>
  <polyline points="80,520 150,510 220,500 290,485 360,470 430,445 500,420 570,395 640,365 710,335" fill="none" stroke="#16a34a" stroke-width="6"/>
  <text x="120" y="195" font-family="Arial" font-size="24" fill="#0f172a">Кліки GSC / Конверсії GA4</text>
  <text x="610" y="575" font-family="Arial" font-size="22" fill="#1e3a8a">Clicks</text>
  <text x="685" y="575" font-family="Arial" font-size="22" fill="#14532d">Conversions</text>

  <rect x="800" y="160" width="380" height="440" rx="18" fill="#ffffff" stroke="#cbd5e1" stroke-width="3"/>
  <rect x="830" y="215" width="320" height="58" rx="8" fill="#dcfce7"/>
  <rect x="830" y="289" width="290" height="58" rx="8" fill="#fef3c7"/>
  <rect x="830" y="363" width="240" height="58" rx="8" fill="#fee2e2"/>
  <rect x="830" y="437" width="200" height="58" rx="8" fill="#dbeafe"/>
  <text x="840" y="250" font-family="Arial" font-size="24" fill="#14532d">Top pages: 42%</text>
  <text x="840" y="324" font-family="Arial" font-size="24" fill="#92400e">Needs update: 33%</text>
  <text x="840" y="398" font-family="Arial" font-size="24" fill="#7f1d1d">Critical: 17%</text>
  <text x="840" y="472" font-family="Arial" font-size="24" fill="#1e3a8a">Tests: 8%</text>
  <text x="840" y="540" font-family="Arial" font-size="23" fill="#0f172a">Фокус спринту: high-traffic URLs</text>
</svg>
